<svg xmlns="http://www.w3.org/2000/svg" xmlns:xlink="http://www.w3.org/1999/xlink" viewBox="0 0 814.75 163.9"><defs><style>.cls-1,.cls-2,.cls-3,.cls-4{fill:none;}.cls-2,.cls-4{clip-path:url(#clip-path);}.cls-2,.cls-3{clip-rule:evenodd;}.cls-5{clip-path:url(#clip-path-5);}.cls-6{fill:#6654a0;}.cls-7{clip-path:url(#clip-path-6);}.cls-8{fill:#00bcde;}.cls-9{clip-path:url(#clip-path-7);}.cls-10{fill:#b9b9bf;}.cls-11{clip-path:url(#clip-path-8);}.cls-12{fill:#e1519a;}.cls-13{clip-path:url(#clip-path-9);}.cls-14{fill:#1c1826;}.cls-15,.cls-18{fill:#8e8e8e;}.cls-16{fill:#cbcbcb;}.cls-17{fill:#8f8f8f;}.cls-18{stroke:#8e8e8e;stroke-miterlimit:10;stroke-width:0.5px;}</style><clipPath id="clip-path"><rect class="cls-1" width="812.09" height="150.33"/></clipPath><clipPath id="clip-path-5" transform="translate(8.17 7.12)"><path class="cls-2" d="M21.85,127A69.21,69.21,0,0,1,.79,85.38C-2.46,61.81,4.34,41.21,20.57,23.77A13.41,13.41,0,0,1,22,22.64l25.92,26C37.56,60.15,34.53,73.21,39.65,88a37.76,37.76,0,0,0,8.29,13C39,109.39,30.27,118,21.85,127"/></clipPath><clipPath id="clip-path-6" transform="translate(8.17 7.12)"><path class="cls-3" d="M21.85,127c8.42-9,17.18-17.58,26.09-26,15.29,14,34.23,13,47.4,3.55,4.84-3.48,4.84-3.48,9,.72L124,124.78c1.13,1.14,2.39,1.94.47,3.78C95.8,156,49,155.08,21.85,127"/></clipPath><clipPath id="clip-path-7" transform="translate(8.17 7.12)"><path class="cls-2" d="M38.59,81.79l-19.34-7,19.34-7.18c9.87-3.35,19.72-6.75,29.62-10,12.37-4.08,24.44,4.44,24.45,17.14A18,18,0,0,1,68.94,92.1C58.76,88.84,48.7,85.24,38.59,81.79"/></clipPath><clipPath id="clip-path-8" transform="translate(8.17 7.12)"><path class="cls-2" d="M123.86,20.55C105.39,4,83.88-1.95,59.63,2.44A67,67,0,0,0,22,22.64l25.92,26c4-3.3,8.12-6.28,12.87-8.08.44-.17.89-.34,1.36-.49s.87-.27,1.32-.39A28.19,28.19,0,0,1,66.88,39a51.61,51.61,0,0,1,14.12,0l0,0A33,33,0,0,1,97.68,47.1c1.67,1.46,2.57,1.57,4.17-.06q11-11.22,22.18-22.19c1.81-1.76,1.64-2.68-.17-4.3"/></clipPath><clipPath id="clip-path-9" transform="translate(8.17 7.12)"><path class="cls-4" d="M157.49,98.24a25.88,25.88,0,0,0,23.22-14.19l-12.82-6.79a11.31,11.31,0,0,1-10.4,7.28c-6.12,0-11.07-4.76-11.07-11.65s5-11.66,11.07-11.66a11.31,11.31,0,0,1,10.4,7.28l12.82-6.79a25.9,25.9,0,0,0-23.22-14.19c-14.28,0-25.83,10.49-25.83,25.36s11.55,25.35,25.83,25.35Zm50.7,0c6.51,0,11.27-3.31,13.21-5.93v4.86h14.67V48.6H221.4v4.86c-1.94-2.62-6.7-5.93-13.21-5.93-12.72,0-22.53,11.56-22.53,25.36s9.81,25.35,22.53,25.35Zm3.31-13.31c-6.61,0-11.08-5.05-11.08-12s4.47-12,11.08-12,11.07,5,11.07,12-4.47,12-11.07,12Zm51.28,12.24V24.32H248.11V97.17ZM282.11,42A9.13,9.13,0,1,0,273,32.87,9.14,9.14,0,0,0,282.11,42Zm7.38,55.17V48.6H274.82V97.17Zm39.92,1.07c12.73,0,22.54-11.56,22.54-25.35s-9.81-25.36-22.54-25.36c-6.51,0-11.27,3.31-13.21,5.93V24.32H301.54V97.17H316.2V92.31c1.94,2.62,6.7,5.93,13.21,5.93Zm-3.3-13.31c-6.61,0-11.07-5.05-11.07-12s4.46-12,11.07-12,11.07,5,11.07,12-4.47,12-11.07,12Zm49.63,12.24v-23c0-7,3.5-11.85,9.81-11.85a18.94,18.94,0,0,1,6.51,1.16V48.6A17.4,17.4,0,0,0,387.3,48a12.56,12.56,0,0,0-11.56,7.87V48.6H361.08V97.17Zm40.6,1.07c6.51,0,11.27-3.31,13.21-5.93v4.86h14.67V48.6H429.55v4.86c-1.94-2.62-6.7-5.93-13.21-5.93-12.72,0-22.53,11.56-22.53,25.36s9.81,25.35,22.53,25.35Zm3.3-13.31c-6.6,0-11.07-5.05-11.07-12s4.47-12,11.07-12,11.08,5,11.08,12-4.47,12-11.08,12ZM481,97.75a33,33,0,0,0,8.74-1v-13a14.14,14.14,0,0,1-5.34.88c-5.83,0-8.26-2.43-8.26-8.26v-15h13.6V48.6h-13.6V35.1H461.51V48.6h-9.72V61.33h9.72V79.39c0,12.34,8.74,18.36,19.52,18.36ZM506.28,42a9.13,9.13,0,1,0-9.13-9.13A9.14,9.14,0,0,0,506.28,42Zm7.39,55.17V48.6H499V97.17Zm34.57,1.07A25.36,25.36,0,1,0,522.7,72.89a25.36,25.36,0,0,0,25.54,25.35Zm0-13.7c-6.12,0-10.78-4.76-10.78-11.65s4.66-11.66,10.78-11.66S559,66,559,72.89s-4.66,11.65-10.78,11.65Zm49.25,12.63V73.57c0-8.75,4.27-12.73,9.81-12.73,5.24,0,7.87,4.08,7.87,10.78V97.17h14.66V69.1c0-12.73-6.89-21.57-18.84-21.57-6.31,0-11.17,2.72-13.5,6v-5H582.82V97.17ZM658,98.24c10.68,0,18.94-6.71,18.94-16.13,0-8.74-5.44-13-14.28-15.34l-4.47-1.17c-3.69-1-4.08-2.43-4.08-3.5,0-1.84,2.14-2.52,4-2.52a9.38,9.38,0,0,1,7.67,3.88l9.52-7.86c-3.89-5.35-9.62-8.07-17.1-8.07-10.58,0-18.45,5.93-18.65,15-.19,7.77,4.57,13.7,13.8,15.93l3.2.78c5.05,1.26,5.93,2.14,5.93,3.79,0,1.94-2.24,2.72-4.47,2.72a12.43,12.43,0,0,1-10.49-5l-9.71,8.83c4.46,5.93,11.75,8.75,20.2,8.75Z"/></clipPath></defs><g id="Layer_2" data-name="Layer 2"><g id="Layer_1-2" data-name="Layer 1"><g id="Logo_Black" data-name="Logo Black"><g class="cls-5"><rect class="cls-6" y="21.6" width="64.28" height="120.67"/></g><g class="cls-7"><rect class="cls-8" x="21.85" y="99.88" width="119.93" height="64.03"/></g><g class="cls-9"><rect class="cls-10" x="19.25" y="55.56" width="89.75" height="52.74"/></g><g class="cls-11"><rect class="cls-12" x="22" width="119.65" height="63.93"/></g><g class="cls-13"><rect class="cls-14" x="131.66" y="22.69" width="561.62" height="90.84"/></g><path class="cls-15" d="M749.24,66.44a12.25,12.25,0,0,0-1.71-.31c-.38,0-.75-.08-1.12-.13s-1.08,0-1.47,0h-.5s-.43,0-.91,0c-.25,0-.49.07-.74.09-.75.25-1.56.35-2.31.61a14.2,14.2,0,0,0-9.38,15.87,14.38,14.38,0,0,0,14.38,11.61c6.93-.21,13-5.46,13.76-12C760.14,74.78,756.1,68.49,749.24,66.44Zm-2,19.69a5.88,5.88,0,0,1-4.89-.36A5.11,5.11,0,0,1,740,83.43a7,7,0,0,1-.77-3.54,6.26,6.26,0,0,1,2.21-5,5.74,5.74,0,0,1,8.5,1.24l0,.06a7.08,7.08,0,0,1,.36,7A5.11,5.11,0,0,1,747.22,86.13Z" transform="translate(8.17 7.12)"/><path class="cls-16" d="M806.56,77.36c-.22.09-.48.16-.52.38-1,5.29-1.77,10.58.46,15.79h.07C806.51,90,806.51,81.4,806.56,77.36Z" transform="translate(8.17 7.12)"/><path class="cls-15" d="M806.58,76.34c-.92-7.58-3.92-10.27-11.42-10.45a10.57,10.57,0,0,0-6,3.39c-.67.84-1.26.89-1.94,0-2.3-2.9-5.47-3.56-8.94-3.43a9,9,0,0,0-3.88,1.86c-.38.33-1.07.89-1.36.25-1.26-2.75-3.63-1.17-5.48-1.5-2.18-.4-3,.58-3,2.86.12,6.32,0,12.65,0,19,0,5.78-.82,5.13,5.48,5.29,2.26.06,2.78-.89,2.73-2.9-.08-3.79-.08-7.59.06-11.39s2-5.94,4.65-5.94,3.93,1.95,4,6,.06,8,0,11.93c0,1.61.58,2.37,2.22,2.25.45,0,.91,0,1.36,0,4.62,0,4.57,0,4.64-4.47.06-3.79-.37-7.6.38-11.36.35-1.76,1.05-3.32,2.83-4,2.91-1.17,5.24.46,5.41,4.06.21,4.42.17,8.85.12,13.28,0,1.85.64,2.66,2.54,2.54s3.63-.06,5.44-.08c0-1.1,0-2.19,0-3.29C806.51,85.6,806.53,79,806.58,76.34Z" transform="translate(8.17 7.12)"/><path class="cls-15" d="M715.59,65.93a14.2,14.2,0,0,1,11.06,5.66c1.13,1.44,1.29,2.52-.66,3.31A11.68,11.68,0,0,0,723.83,76c-1.72,1.19-3,1.21-4.49-.62a5.72,5.72,0,0,0-8.28-.26,6.94,6.94,0,0,0-.53,9.13c2,2.42,6.29,3.19,8.2.75,2.49-3.18,4.36-1.52,6.62-.26,2.87,1.6,2.91,1.74.8,4.24a14.81,14.81,0,0,1-17.82,3.47c-6-3-8.83-9.48-7.16-16.24C702.67,70.19,708.33,65.93,715.59,65.93Z" transform="translate(8.17 7.12)"/><path class="cls-17" d="M696.75,88.28A5.55,5.55,0,0,1,691,93.84a5.78,5.78,0,0,1-5.63-5.78,5.86,5.86,0,0,1,5.84-5.61A5.67,5.67,0,0,1,696.75,88.28Z" transform="translate(8.17 7.12)"/><rect class="cls-15" x="772.75" y="73.05" width="8.2" height="4.78"/><line class="cls-18" x1="814.45" y1="93.85" x2="814.49" y2="100.66"/></g></g></g></svg>