<svg xmlns="http://www.w3.org/2000/svg" xmlns:xlink="http://www.w3.org/1999/xlink" viewBox="0 0 65.09 20.71"><defs><style>.cls-1{fill:none;}.cls-2{clip-path:url(#clip-path);}.cls-3{fill:#fff;}</style><clipPath id="clip-path" transform="translate(0)"><rect class="cls-1" y="7.46" width="65.09" height="13.24"/></clipPath></defs><g id="Layer_2" data-name="Layer 2"><g id="Layer_1-2" data-name="Layer 1"><g id="Artwork_3" data-name="Artwork 3"><g class="cls-2"><g class="cls-2"><path class="cls-3" d="M9.92,7.46l-7.73,0A2.2,2.2,0,0,0,0,9.68v7.73a2.2,2.2,0,0,0,2.2,2.19l7.74,0a2.19,2.19,0,0,0,2.18-2.19V9.65a2.2,2.2,0,0,0-2.2-2.19M.73,17.8V16l6-6.69v2Zm10.68-6.54-6,6.53V16l6-6.69Z" transform="translate(0)"/><path class="cls-3" d="M15.05,17.51c.1-1.55.18-3.15.25-4.78s.09-2.88.09-3.75V8.26h1.08l1,0c-.17,2.38-.28,5.46-.32,9.26l-1,0-1.13,0" transform="translate(0)"/><path class="cls-3" d="M18.6,17.46q.15-1.53.24-3.45c.07-1.27.1-2.41.11-3.42h.95l.9,0-.07,1.15a4.78,4.78,0,0,1,.35-.47,2.28,2.28,0,0,1,.39-.35,2.42,2.42,0,0,1,.5-.27,3.18,3.18,0,0,1,.61-.16,3.85,3.85,0,0,1,.69-.06,4,4,0,0,1,1.11.15,1.91,1.91,0,0,1,.85.48,1.6,1.6,0,0,1,.43.72,3.2,3.2,0,0,1,.11.83c0,.12,0,.32,0,.58l-.13,3c0,.41,0,.84,0,1.31H23.72c0-.39.08-1.07.13-2s.07-1.62.07-1.94a1.87,1.87,0,0,0-.16-.85,1.1,1.1,0,0,0-.5-.5,1.57,1.57,0,0,0-.74-.16,1.72,1.72,0,0,0-.72.15,1.75,1.75,0,0,0-.59.46,2.23,2.23,0,0,0-.4.75,6.9,6.9,0,0,0-.21,1.56c-.05.64-.08,1.51-.1,2.59H18.6" transform="translate(0)"/><path class="cls-3" d="M33.67,17.43h-.84l-.89,0,0-1.18a6.89,6.89,0,0,1-.48.6,2.63,2.63,0,0,1-.51.39,2.46,2.46,0,0,1-.65.26,3,3,0,0,1-1.89-.14,2.7,2.7,0,0,1-.93-.67,2.66,2.66,0,0,1-.56-1,3.86,3.86,0,0,1-.19-1.23,5,5,0,0,1,.32-1.73A3.58,3.58,0,0,1,28,11.36a3.27,3.27,0,0,1,1.27-.74,5.39,5.39,0,0,1,1.53-.22,9.63,9.63,0,0,1,1.33.11c0-.58.05-1.2.05-1.84V8.21h1.88c-.1,1.14-.18,2.7-.26,4.67s-.12,3.49-.12,4.55M32,11.8a3.42,3.42,0,0,0-.93-.13,3.19,3.19,0,0,0-1,.15,2,2,0,0,0-.82.5,2.42,2.42,0,0,0-.56.92,3.34,3.34,0,0,0-.19,1.09,2.47,2.47,0,0,0,.18.95,1.5,1.5,0,0,0,.56.68,1.47,1.47,0,0,0,.85.25,1.66,1.66,0,0,0,.64-.13,1.58,1.58,0,0,0,.53-.41,2.29,2.29,0,0,0,.41-.71A4.73,4.73,0,0,0,32,13.81c0-.35.06-1,.08-2" transform="translate(0)"/><path class="cls-3" d="M34.24,20.53c-.08-.67-.14-1.16-.19-1.46a2.59,2.59,0,0,0,1.17.31,1.41,1.41,0,0,0,.35-.05,1.75,1.75,0,0,0,.32-.12.94.94,0,0,0,.2-.16,2.76,2.76,0,0,0,.27-.37,6,6,0,0,0,.31-.53,4.41,4.41,0,0,0,.21-.57l-1.36-4.11-1-2.91h1l.9,0c.09.38.18.7.26,1l.62,2.12c.19.65.33,1.14.41,1.47s.11.5.18.86c.13-.41.24-.74.34-1,.16-.47.4-1.1.7-1.88l.62-1.62c.11-.29.23-.6.34-.93h.89l.94,0-2.49,5.84L38.14,19a3.82,3.82,0,0,1-.43.78,2.08,2.08,0,0,1-.37.41,1.82,1.82,0,0,1-.41.27,3.89,3.89,0,0,1-.6.22,3.82,3.82,0,0,1-.75.08l-.59,0a4.52,4.52,0,0,1-.75-.14" transform="translate(0)"/><path class="cls-3" d="M41.89,17.22c0-.68-.08-1.24-.14-1.67a5.63,5.63,0,0,0,2.31.59,2.19,2.19,0,0,0,.77-.13,1.08,1.08,0,0,0,.53-.37.87.87,0,0,0,.17-.54,1.07,1.07,0,0,0-.08-.41,1.82,1.82,0,0,0-.41-.52c-.25-.25-.69-.66-1.33-1.22l-.63-.59a6.11,6.11,0,0,1-.59-.69,2.29,2.29,0,0,1-.3-.61,2.23,2.23,0,0,1,1.26-2.72A4,4,0,0,1,45.16,8a11.08,11.08,0,0,1,2.08.23c0,.47.07,1,.14,1.61a5.08,5.08,0,0,0-1.87-.4,1.66,1.66,0,0,0-1,.3.89.89,0,0,0-.41.7.91.91,0,0,0,0,.23.92.92,0,0,0,.09.23,1.38,1.38,0,0,0,.2.29,3.29,3.29,0,0,0,.42.42l.48.39.8.75c.2.18.38.35.54.52a4.16,4.16,0,0,1,.41.47,2.18,2.18,0,0,1,.27.44,1.84,1.84,0,0,1,.15.43,2.31,2.31,0,0,1,0,.46,2.38,2.38,0,0,1-.25,1.08,2.23,2.23,0,0,1-.73.83,3.17,3.17,0,0,1-1,.45,6.47,6.47,0,0,1-1.19.13,7.41,7.41,0,0,1-1-.08c-.37-.05-.85-.14-1.45-.28" transform="translate(0)"/><path class="cls-3" d="M52.14,10.36a4.49,4.49,0,0,1,1.42.23,3.24,3.24,0,0,1,1.17.69,2.9,2.9,0,0,1,.71,1.11,4,4,0,0,1,.25,1.39,4.66,4.66,0,0,1-.25,1.49,3.57,3.57,0,0,1-.73,1.24,3,3,0,0,1-1.2.79,4.45,4.45,0,0,1-1.52.26,4.51,4.51,0,0,1-1.43-.23,3,3,0,0,1-1.16-.7,3.11,3.11,0,0,1-.73-1.13,3.9,3.9,0,0,1-.25-1.4,4.44,4.44,0,0,1,.22-1.42,3.32,3.32,0,0,1,.71-1.2,3.06,3.06,0,0,1,1.23-.82,4.16,4.16,0,0,1,1.56-.3m0,1.39a1.84,1.84,0,0,0-1,.29,1.74,1.74,0,0,0-.65.86,3.33,3.33,0,0,0-.22,1.24,2.8,2.8,0,0,0,.18,1,1.66,1.66,0,0,0,.58.75,1.62,1.62,0,0,0,1,.28,1.69,1.69,0,0,0,1-.3,1.75,1.75,0,0,0,.65-.86,3.66,3.66,0,0,0,.21-1.26,3,3,0,0,0-.17-1A1.47,1.47,0,0,0,53.1,12a1.65,1.65,0,0,0-1-.28" transform="translate(0)"/><path class="cls-3" d="M56.81,17.31l.07-1.1.19-4.35h-.81c0-.13,0-.35,0-.65s0-.52,0-.66h.89v-.26a7.54,7.54,0,0,1,.06-1.1,1.51,1.51,0,0,1,.22-.62A1.2,1.2,0,0,1,58,8.16a2,2,0,0,1,.64-.25,4.2,4.2,0,0,1,.72-.06,6.49,6.49,0,0,1,1.58.21c0,.5,0,.93.08,1.28a3.52,3.52,0,0,0-1.16-.22,1.11,1.11,0,0,0-.37.05.74.74,0,0,0-.28.14.67.67,0,0,0-.18.22,1.15,1.15,0,0,0-.1.33c0,.13,0,.28,0,.44v.25h1.67c0,.3-.05.74-.07,1.31H58.88c-.08,1.77-.14,3.59-.18,5.45l-1,0-.93,0" transform="translate(0)"/><path class="cls-3" d="M65,16c-.05.25-.13.71-.24,1.39a6.32,6.32,0,0,1-.86.16,4,4,0,0,1-.58,0,3.3,3.3,0,0,1-.87-.1,1.36,1.36,0,0,1-.63-.33,1.28,1.28,0,0,1-.33-.56,2.52,2.52,0,0,1-.09-.67,2.27,2.27,0,0,1,0-.24c0-.1,0-.42,0-1l.14-2.83h-.94c0-.28,0-.71.06-1.31h1c0-.26,0-.7.07-1.33l.77-.16.93-.23c0,.61,0,1.19,0,1.72h1.66c0,.61,0,1.05,0,1.31H63.39c-.09,1.84-.14,2.91-.13,3.2a2.15,2.15,0,0,0,.08.65.63.63,0,0,0,.29.33.86.86,0,0,0,.41.1l.35,0A3.64,3.64,0,0,0,65,16" transform="translate(0)"/></g></g></g><path class="cls-3" d="M3.46,1.9a2.69,2.69,0,0,1-.31,1.3,2,2,0,0,1-.84.88,2.62,2.62,0,0,1-1.25.29H.13L1,.26h.86a1.59,1.59,0,0,1,1.2.42A1.68,1.68,0,0,1,3.46,1.9ZM1.05,4.12a2.17,2.17,0,0,0,1.11-.27,1.75,1.75,0,0,0,.73-.77,2.45,2.45,0,0,0,.26-1.16C3.15,1,2.71.52,1.82.52H1.24L.47,4.12Z" transform="translate(0)"/><path class="cls-3" d="M5,4.43a1,1,0,0,1-.76-.31,1.27,1.27,0,0,1-.27-.86,2.48,2.48,0,0,1,.2-1,2,2,0,0,1,.55-.75,1.23,1.23,0,0,1,.77-.27A.73.73,0,0,1,6,1.44a.6.6,0,0,1,.19.47.84.84,0,0,1-.46.77A2.72,2.72,0,0,1,4.32,3H4.23a2.13,2.13,0,0,0,0,.27,1.06,1.06,0,0,0,.21.71.75.75,0,0,0,.6.24A1.67,1.67,0,0,0,5.79,4v.26A1.86,1.86,0,0,1,5,4.43Zm.46-2.92a.94.94,0,0,0-.69.33,1.81,1.81,0,0,0-.45.86h.14c1,0,1.45-.25,1.45-.76a.43.43,0,0,0-.12-.31A.46.46,0,0,0,5.41,1.51Z" transform="translate(0)"/><path class="cls-3" d="M7,4.37l-.49-3h.29l.3,2.06c0,.31.08.55.09.71h0c.1-.21.22-.45.36-.71L8.73,1.32H9L7.34,4.37Z" transform="translate(0)"/><path class="cls-3" d="M10.07,4.43a1,1,0,0,1-.76-.31A1.27,1.27,0,0,1,9,3.26a2.48,2.48,0,0,1,.2-1,2,2,0,0,1,.55-.75,1.23,1.23,0,0,1,.77-.27.73.73,0,0,1,.51.17.6.6,0,0,1,.19.47.84.84,0,0,1-.45.77A2.79,2.79,0,0,1,9.44,3H9.35a2.13,2.13,0,0,0,0,.27,1.06,1.06,0,0,0,.21.71.75.75,0,0,0,.6.24,1.64,1.64,0,0,0,.77-.2v.26A1.86,1.86,0,0,1,10.07,4.43Zm.46-2.92a1,1,0,0,0-.69.33,1.81,1.81,0,0,0-.45.86h.14c1,0,1.45-.25,1.45-.76a.43.43,0,0,0-.12-.31A.46.46,0,0,0,10.53,1.51Z" transform="translate(0)"/><path class="cls-3" d="M11.84,4.37h-.26L12.51,0h.27Z" transform="translate(0)"/><path class="cls-3" d="M14.52,1.26a1,1,0,0,1,.78.3,1.2,1.2,0,0,1,.28.84,2.75,2.75,0,0,1-.2,1,1.74,1.74,0,0,1-.55.73,1.33,1.33,0,0,1-.81.26,1,1,0,0,1-.78-.31A1.3,1.3,0,0,1,13,3.24a2.47,2.47,0,0,1,.21-1,1.69,1.69,0,0,1,.55-.72A1.28,1.28,0,0,1,14.52,1.26Zm0,.24a1,1,0,0,0-.63.22,1.49,1.49,0,0,0-.44.63,2.36,2.36,0,0,0-.17.87c0,.64.26,1,.79,1A1,1,0,0,0,14.69,4a1.55,1.55,0,0,0,.44-.64,2.56,2.56,0,0,0,.16-.93,1,1,0,0,0-.2-.67A.78.78,0,0,0,14.5,1.5Z" transform="translate(0)"/><path class="cls-3" d="M17.25,4.42a.72.72,0,0,1-.78-.62h0l-.42,2h-.28l.94-4.43h.23l-.12.77h0a1.94,1.94,0,0,1,.55-.63,1.15,1.15,0,0,1,.64-.2.69.69,0,0,1,.59.26,1.24,1.24,0,0,1,.2.79,2.6,2.6,0,0,1-.2,1,1.9,1.9,0,0,1-.55.78A1.25,1.25,0,0,1,17.25,4.42ZM18,1.51a.85.85,0,0,0-.48.17,1.59,1.59,0,0,0-.46.47,2.22,2.22,0,0,0-.31.66,2.19,2.19,0,0,0-.1.59.89.89,0,0,0,.17.56.6.6,0,0,0,.48.21,1,1,0,0,0,.63-.23,1.7,1.7,0,0,0,.46-.69,2.37,2.37,0,0,0,.17-.91C18.51,1.79,18.33,1.51,18,1.51Z" transform="translate(0)"/><path class="cls-3" d="M20.4,4.43a1,1,0,0,1-.76-.31,1.27,1.27,0,0,1-.27-.86,2.31,2.31,0,0,1,.2-1,1.91,1.91,0,0,1,.54-.75,1.25,1.25,0,0,1,.78-.27.77.77,0,0,1,.51.17.63.63,0,0,1,.19.47.85.85,0,0,1-.46.77A2.76,2.76,0,0,1,19.76,3h-.09a2.26,2.26,0,0,0,0,.27,1.06,1.06,0,0,0,.2.71.75.75,0,0,0,.6.24,1.67,1.67,0,0,0,.78-.2v.26A1.92,1.92,0,0,1,20.4,4.43Zm.45-2.92a.94.94,0,0,0-.68.33,1.91,1.91,0,0,0-.46.86h.14c1,0,1.45-.25,1.45-.76a.43.43,0,0,0-.12-.31A.45.45,0,0,0,20.85,1.51Z" transform="translate(0)"/><path class="cls-3" d="M23.53,1.27a.71.71,0,0,1,.78.61h0c0-.12.16-.75.4-1.88H25l-.93,4.37h-.23L24,3.6h0a1.4,1.4,0,0,1-1.19.83c-.52,0-.79-.35-.79-1a2.79,2.79,0,0,1,.2-1,2,2,0,0,1,.56-.79A1.28,1.28,0,0,1,23.53,1.27Zm-.7,2.9a.86.86,0,0,0,.5-.17,2.25,2.25,0,0,0,.45-.47,2.49,2.49,0,0,0,.4-1.24A.85.85,0,0,0,24,1.72a.57.57,0,0,0-.47-.21,1,1,0,0,0-.63.23,1.7,1.7,0,0,0-.46.69,2.38,2.38,0,0,0-.18.91C22.26,3.9,22.45,4.17,22.83,4.17Z" transform="translate(0)"/><path class="cls-3" d="M27.77,4.42a.82.82,0,0,1-.53-.17A.88.88,0,0,1,27,3.78h0l-.15.59h-.22L27.49,0h.27l-.45,2.11h0a2.18,2.18,0,0,1,.56-.65,1.18,1.18,0,0,1,.65-.2c.53,0,.79.35.79,1.05a2.72,2.72,0,0,1-.21,1.07,2,2,0,0,1-.57.77A1.23,1.23,0,0,1,27.77,4.42Zm.7-2.91a.94.94,0,0,0-.51.17,2.09,2.09,0,0,0-.45.48,2.47,2.47,0,0,0-.3.66,2.6,2.6,0,0,0-.1.58.85.85,0,0,0,.18.57.62.62,0,0,0,.47.2.94.94,0,0,0,.63-.23,1.58,1.58,0,0,0,.46-.69A2.46,2.46,0,0,0,29,2.34a1.15,1.15,0,0,0-.14-.63A.48.48,0,0,0,28.47,1.51Z" transform="translate(0)"/><path class="cls-3" d="M29.94,1.32h.28l.23,1.54a11,11,0,0,1,.15,1.26h0a10.84,10.84,0,0,1,.52-1l1-1.77h.29l-2,3.62a2.6,2.6,0,0,1-.34.5,1.18,1.18,0,0,1-.32.23,1.07,1.07,0,0,1-.41.08A1.15,1.15,0,0,1,29,5.69V5.43a1,1,0,0,0,.39.08.68.68,0,0,0,.41-.14,1.4,1.4,0,0,0,.37-.46c.11-.22.21-.39.28-.52Z" transform="translate(0)"/></g></g></svg>